<?xml version="1.0" encoding="utf-8"?>
<!-- Generator: Adobe Illustrator 19.0.0, SVG Export Plug-In . SVG Version: 6.00 Build 0)  -->
<svg version="1.1" id="Слой_1" xmlns="http://www.w3.org/2000/svg" xmlns:xlink="http://www.w3.org/1999/xlink" x="0px" y="0px"
	 viewBox="0 0 800 800" style="enable-background:new 0 0 800 800;" xml:space="preserve">
<style type="text/css">
	.st0{fill:url(#XMLID_5_);}
</style>
<linearGradient id="XMLID_5_" gradientUnits="userSpaceOnUse" x1="161.7859" y1="151.6945" x2="722.9211" y2="711.6226" gradientTransform="matrix(1 0 0 -1 0 800.11)">
	<stop  offset="0.263" style="stop-color:#48A0D9"/>
	<stop  offset="0.563" style="stop-color:#4AA4DB"/>
	<stop  offset="0.869" style="stop-color:#4DB0E4"/>
	<stop  offset="1" style="stop-color:#50B8E9"/>
</linearGradient>
<path id="XMLID_4_" class="st0" d="M766.7,29.8C727.1-11.7,621.5-6,497,76.9h1.9c-30.2-9.4-64.1-15.1-98.1-15.1
	c-192.4,0-347,156.5-347,348.9c0,32.1,3.8,64.1,13.2,92.4c-69.8,107.5-79.2,218.8-35.8,264c18.9,18.9,45.3,28.3,77.3,28.3
	c86.7,0,181-54.7,184.8-54.7c33.9,11.3,69.8,17,107.5,17c192.4,0,345.1-154.6,347-347c0-28.3-3.8-50.9-5.7-66
	C738.4,341,844,112.8,766.7,29.8L766.7,29.8z M74.6,723.8C50,699.3,59.5,638.9,95.3,578.6c26.4,41.5,45.3,60.3,64.1,84.9
	c90.5-45.3,222.5-139.6,294.2-209.3c116.9-111.3,177.3-211.2,201.8-277.2c-35.8-33.9-54.7-50.9-75.4-62.2
	c77.3-47.1,109.4-41.5,126.4-24.5c18.9,18.9,20.7,62.2,5.7,118.8c-7.5,30.2-22.6,71.7-56.6,124.5c-49,75.4-86.7,120.7-139.6,171.6
	c-30.2,28.3-86.7,75.4-135.8,113.2c-54.7,39.6-122.6,71.7-160.3,90.5C176.4,733.2,97.2,746.4,74.6,723.8L74.6,723.8z"/>
</svg>
